<mxfile host="app.diagrams.net" agent="Mozilla/5.0 (Windows NT 10.0; Win64; x64) AppleWebKit/537.36 (KHTML, like Gecko) Chrome/132.0.0.0 Safari/537.36 Edg/132.0.0.0" version="26.0.8">
  <diagram name="Pagina-1" id="BuZ3f1GYpLzY85h5_LMn">
    <mxGraphModel dx="1042" dy="565" grid="1" gridSize="10" guides="1" tooltips="1" connect="1" arrows="1" fold="1" page="1" pageScale="1" pageWidth="827" pageHeight="1169" math="0" shadow="0">
      <root>
        <mxCell id="0" />
        <mxCell id="1" parent="0" />
        <mxCell id="ln2hTo9-q7TNRi0M3-JU-3" style="edgeStyle=orthogonalEdgeStyle;rounded=0;orthogonalLoop=1;jettySize=auto;html=1;entryX=0.5;entryY=0;entryDx=0;entryDy=0;" edge="1" parent="1" source="ln2hTo9-q7TNRi0M3-JU-1" target="ln2hTo9-q7TNRi0M3-JU-2">
          <mxGeometry relative="1" as="geometry" />
        </mxCell>
        <mxCell id="ln2hTo9-q7TNRi0M3-JU-1" value="START" style="ellipse;whiteSpace=wrap;html=1;" vertex="1" parent="1">
          <mxGeometry x="360" y="40" width="120" height="80" as="geometry" />
        </mxCell>
        <mxCell id="ln2hTo9-q7TNRi0M3-JU-5" style="edgeStyle=orthogonalEdgeStyle;rounded=0;orthogonalLoop=1;jettySize=auto;html=1;entryX=0.5;entryY=0;entryDx=0;entryDy=0;" edge="1" parent="1" source="ln2hTo9-q7TNRi0M3-JU-2" target="ln2hTo9-q7TNRi0M3-JU-4">
          <mxGeometry relative="1" as="geometry" />
        </mxCell>
        <mxCell id="ln2hTo9-q7TNRi0M3-JU-2" value="Read n" style="shape=parallelogram;perimeter=parallelogramPerimeter;whiteSpace=wrap;html=1;fixedSize=1;" vertex="1" parent="1">
          <mxGeometry x="360" y="160" width="120" height="60" as="geometry" />
        </mxCell>
        <mxCell id="ln2hTo9-q7TNRi0M3-JU-7" style="edgeStyle=orthogonalEdgeStyle;rounded=0;orthogonalLoop=1;jettySize=auto;html=1;entryX=0.5;entryY=0;entryDx=0;entryDy=0;" edge="1" parent="1" source="ln2hTo9-q7TNRi0M3-JU-4" target="ln2hTo9-q7TNRi0M3-JU-6">
          <mxGeometry relative="1" as="geometry" />
        </mxCell>
        <mxCell id="ln2hTo9-q7TNRi0M3-JU-8" value="TRUE" style="edgeLabel;html=1;align=center;verticalAlign=middle;resizable=0;points=[];" vertex="1" connectable="0" parent="ln2hTo9-q7TNRi0M3-JU-7">
          <mxGeometry x="-0.3" y="2" relative="1" as="geometry">
            <mxPoint x="-2" as="offset" />
          </mxGeometry>
        </mxCell>
        <mxCell id="ln2hTo9-q7TNRi0M3-JU-40" style="edgeStyle=orthogonalEdgeStyle;rounded=0;orthogonalLoop=1;jettySize=auto;html=1;" edge="1" parent="1" source="ln2hTo9-q7TNRi0M3-JU-4">
          <mxGeometry relative="1" as="geometry">
            <mxPoint x="280" y="300" as="targetPoint" />
          </mxGeometry>
        </mxCell>
        <mxCell id="ln2hTo9-q7TNRi0M3-JU-41" value="FALSE" style="edgeLabel;html=1;align=center;verticalAlign=middle;resizable=0;points=[];" vertex="1" connectable="0" parent="ln2hTo9-q7TNRi0M3-JU-40">
          <mxGeometry x="0.0037" relative="1" as="geometry">
            <mxPoint as="offset" />
          </mxGeometry>
        </mxCell>
        <mxCell id="ln2hTo9-q7TNRi0M3-JU-4" value="n &amp;gt; 0" style="rhombus;whiteSpace=wrap;html=1;" vertex="1" parent="1">
          <mxGeometry x="360" y="260" width="120" height="80" as="geometry" />
        </mxCell>
        <mxCell id="ln2hTo9-q7TNRi0M3-JU-16" style="edgeStyle=orthogonalEdgeStyle;rounded=0;orthogonalLoop=1;jettySize=auto;html=1;entryX=0.5;entryY=0;entryDx=0;entryDy=0;" edge="1" parent="1" source="ln2hTo9-q7TNRi0M3-JU-6" target="ln2hTo9-q7TNRi0M3-JU-15">
          <mxGeometry relative="1" as="geometry" />
        </mxCell>
        <mxCell id="ln2hTo9-q7TNRi0M3-JU-6" value="Read x, y" style="shape=parallelogram;perimeter=parallelogramPerimeter;whiteSpace=wrap;html=1;fixedSize=1;" vertex="1" parent="1">
          <mxGeometry x="360" y="380" width="120" height="60" as="geometry" />
        </mxCell>
        <mxCell id="ln2hTo9-q7TNRi0M3-JU-12" style="edgeStyle=orthogonalEdgeStyle;rounded=0;orthogonalLoop=1;jettySize=auto;html=1;" edge="1" parent="1" source="ln2hTo9-q7TNRi0M3-JU-10">
          <mxGeometry relative="1" as="geometry">
            <mxPoint x="570" y="620" as="targetPoint" />
          </mxGeometry>
        </mxCell>
        <mxCell id="ln2hTo9-q7TNRi0M3-JU-13" value="TRUE" style="edgeLabel;html=1;align=center;verticalAlign=middle;resizable=0;points=[];" vertex="1" connectable="0" parent="ln2hTo9-q7TNRi0M3-JU-12">
          <mxGeometry x="-0.1116" y="-2" relative="1" as="geometry">
            <mxPoint as="offset" />
          </mxGeometry>
        </mxCell>
        <mxCell id="ln2hTo9-q7TNRi0M3-JU-19" style="edgeStyle=orthogonalEdgeStyle;rounded=0;orthogonalLoop=1;jettySize=auto;html=1;" edge="1" parent="1" source="ln2hTo9-q7TNRi0M3-JU-10">
          <mxGeometry relative="1" as="geometry">
            <mxPoint x="420" y="700" as="targetPoint" />
          </mxGeometry>
        </mxCell>
        <mxCell id="ln2hTo9-q7TNRi0M3-JU-20" value="FALSE" style="edgeLabel;html=1;align=center;verticalAlign=middle;resizable=0;points=[];" vertex="1" connectable="0" parent="ln2hTo9-q7TNRi0M3-JU-19">
          <mxGeometry x="-0.2297" y="-3" relative="1" as="geometry">
            <mxPoint x="3" as="offset" />
          </mxGeometry>
        </mxCell>
        <mxCell id="ln2hTo9-q7TNRi0M3-JU-10" value="x &amp;gt; 0 AND y &amp;gt; 0" style="rhombus;whiteSpace=wrap;html=1;" vertex="1" parent="1">
          <mxGeometry x="360" y="580" width="120" height="80" as="geometry" />
        </mxCell>
        <mxCell id="ln2hTo9-q7TNRi0M3-JU-30" style="edgeStyle=orthogonalEdgeStyle;rounded=0;orthogonalLoop=1;jettySize=auto;html=1;entryX=0.5;entryY=1;entryDx=0;entryDy=0;" edge="1" parent="1" source="ln2hTo9-q7TNRi0M3-JU-14" target="ln2hTo9-q7TNRi0M3-JU-29">
          <mxGeometry relative="1" as="geometry" />
        </mxCell>
        <mxCell id="ln2hTo9-q7TNRi0M3-JU-14" value="Write x*y" style="shape=parallelogram;perimeter=parallelogramPerimeter;whiteSpace=wrap;html=1;fixedSize=1;" vertex="1" parent="1">
          <mxGeometry x="560" y="590" width="120" height="60" as="geometry" />
        </mxCell>
        <mxCell id="ln2hTo9-q7TNRi0M3-JU-17" style="edgeStyle=orthogonalEdgeStyle;rounded=0;orthogonalLoop=1;jettySize=auto;html=1;entryX=0.5;entryY=0;entryDx=0;entryDy=0;" edge="1" parent="1" source="ln2hTo9-q7TNRi0M3-JU-15" target="ln2hTo9-q7TNRi0M3-JU-10">
          <mxGeometry relative="1" as="geometry" />
        </mxCell>
        <mxCell id="ln2hTo9-q7TNRi0M3-JU-15" value="n -= 1" style="rounded=0;whiteSpace=wrap;html=1;" vertex="1" parent="1">
          <mxGeometry x="360" y="480" width="120" height="60" as="geometry" />
        </mxCell>
        <mxCell id="ln2hTo9-q7TNRi0M3-JU-26" style="edgeStyle=orthogonalEdgeStyle;rounded=0;orthogonalLoop=1;jettySize=auto;html=1;" edge="1" parent="1" source="ln2hTo9-q7TNRi0M3-JU-21">
          <mxGeometry relative="1" as="geometry">
            <mxPoint x="570" y="740" as="targetPoint" />
          </mxGeometry>
        </mxCell>
        <mxCell id="ln2hTo9-q7TNRi0M3-JU-27" value="FALSE" style="edgeLabel;html=1;align=center;verticalAlign=middle;resizable=0;points=[];" vertex="1" connectable="0" parent="ln2hTo9-q7TNRi0M3-JU-26">
          <mxGeometry x="-0.0056" relative="1" as="geometry">
            <mxPoint as="offset" />
          </mxGeometry>
        </mxCell>
        <mxCell id="ln2hTo9-q7TNRi0M3-JU-33" style="edgeStyle=orthogonalEdgeStyle;rounded=0;orthogonalLoop=1;jettySize=auto;html=1;entryX=0.5;entryY=0;entryDx=0;entryDy=0;" edge="1" parent="1" source="ln2hTo9-q7TNRi0M3-JU-21" target="ln2hTo9-q7TNRi0M3-JU-24">
          <mxGeometry relative="1" as="geometry" />
        </mxCell>
        <mxCell id="ln2hTo9-q7TNRi0M3-JU-34" value="TRUE" style="edgeLabel;html=1;align=center;verticalAlign=middle;resizable=0;points=[];" vertex="1" connectable="0" parent="ln2hTo9-q7TNRi0M3-JU-33">
          <mxGeometry x="-0.07" relative="1" as="geometry">
            <mxPoint as="offset" />
          </mxGeometry>
        </mxCell>
        <mxCell id="ln2hTo9-q7TNRi0M3-JU-21" value="x &amp;lt; 0 AND y &amp;lt; 0" style="rhombus;whiteSpace=wrap;html=1;" vertex="1" parent="1">
          <mxGeometry x="360" y="700" width="120" height="80" as="geometry" />
        </mxCell>
        <mxCell id="ln2hTo9-q7TNRi0M3-JU-39" style="edgeStyle=orthogonalEdgeStyle;rounded=0;orthogonalLoop=1;jettySize=auto;html=1;entryX=0.5;entryY=1;entryDx=0;entryDy=0;" edge="1" parent="1" source="ln2hTo9-q7TNRi0M3-JU-24" target="ln2hTo9-q7TNRi0M3-JU-35">
          <mxGeometry relative="1" as="geometry" />
        </mxCell>
        <mxCell id="ln2hTo9-q7TNRi0M3-JU-24" value="Write &quot;Errore&quot;" style="shape=parallelogram;perimeter=parallelogramPerimeter;whiteSpace=wrap;html=1;fixedSize=1;" vertex="1" parent="1">
          <mxGeometry x="360" y="820" width="120" height="60" as="geometry" />
        </mxCell>
        <mxCell id="ln2hTo9-q7TNRi0M3-JU-37" style="edgeStyle=orthogonalEdgeStyle;rounded=0;orthogonalLoop=1;jettySize=auto;html=1;entryX=0;entryY=0.5;entryDx=0;entryDy=0;" edge="1" parent="1" source="ln2hTo9-q7TNRi0M3-JU-28" target="ln2hTo9-q7TNRi0M3-JU-35">
          <mxGeometry relative="1" as="geometry" />
        </mxCell>
        <mxCell id="ln2hTo9-q7TNRi0M3-JU-28" value="Write x+y" style="shape=parallelogram;perimeter=parallelogramPerimeter;whiteSpace=wrap;html=1;fixedSize=1;" vertex="1" parent="1">
          <mxGeometry x="560" y="710" width="120" height="60" as="geometry" />
        </mxCell>
        <mxCell id="ln2hTo9-q7TNRi0M3-JU-31" style="edgeStyle=orthogonalEdgeStyle;rounded=0;orthogonalLoop=1;jettySize=auto;html=1;entryX=1;entryY=0.5;entryDx=0;entryDy=0;" edge="1" parent="1" source="ln2hTo9-q7TNRi0M3-JU-29" target="ln2hTo9-q7TNRi0M3-JU-4">
          <mxGeometry relative="1" as="geometry" />
        </mxCell>
        <mxCell id="ln2hTo9-q7TNRi0M3-JU-29" value="" style="ellipse;whiteSpace=wrap;html=1;aspect=fixed;" vertex="1" parent="1">
          <mxGeometry x="610" y="290" width="20" height="20" as="geometry" />
        </mxCell>
        <mxCell id="ln2hTo9-q7TNRi0M3-JU-38" style="edgeStyle=orthogonalEdgeStyle;rounded=0;orthogonalLoop=1;jettySize=auto;html=1;entryX=1;entryY=0.5;entryDx=0;entryDy=0;" edge="1" parent="1" source="ln2hTo9-q7TNRi0M3-JU-35" target="ln2hTo9-q7TNRi0M3-JU-29">
          <mxGeometry relative="1" as="geometry">
            <Array as="points">
              <mxPoint x="720" y="300" />
            </Array>
          </mxGeometry>
        </mxCell>
        <mxCell id="ln2hTo9-q7TNRi0M3-JU-35" value="" style="ellipse;whiteSpace=wrap;html=1;aspect=fixed;" vertex="1" parent="1">
          <mxGeometry x="710" y="730" width="20" height="20" as="geometry" />
        </mxCell>
        <mxCell id="ln2hTo9-q7TNRi0M3-JU-42" value="END" style="ellipse;whiteSpace=wrap;html=1;" vertex="1" parent="1">
          <mxGeometry x="160" y="260" width="120" height="80" as="geometry" />
        </mxCell>
      </root>
    </mxGraphModel>
  </diagram>
</mxfile>
